<svg width="1361" height="1101" viewBox="0 0 1361 1101" fill="none" xmlns="http://www.w3.org/2000/svg">
<g opacity="0.2" filter="url(#filter0_f_175_188)">
<ellipse cx="703.5" cy="350" rx="670.5" ry="350" fill="#35875D"/>
</g>
<path d="M224.035 586C225.53 586 226.662 586.63 227.431 587.891C228.213 589.138 228.605 590.953 228.605 593.336C228.605 595.719 228.213 597.541 227.431 598.802C226.662 600.063 225.53 600.693 224.035 600.693C222.554 600.693 221.422 600.063 220.639 598.802C219.856 597.541 219.465 595.719 219.465 593.336C219.465 590.967 219.856 589.152 220.639 587.891C221.422 586.63 222.554 586 224.035 586ZM220.953 593.336C220.953 595.026 221.107 596.35 221.415 597.306L226.068 588.099C225.579 587.448 224.901 587.122 224.035 587.122C223.071 587.122 222.316 587.635 221.771 588.66C221.226 589.672 220.953 591.23 220.953 593.336ZM224.035 599.55C225.013 599.55 225.775 599.044 226.32 598.033C226.865 597.008 227.137 595.442 227.137 593.336C227.137 591.549 226.963 590.163 226.613 589.18L221.96 598.469C222.463 599.19 223.154 599.55 224.035 599.55Z" fill="url(#paint0_linear_175_188)" fill-opacity="0.6"/>
<path d="M225.293 623.135H228.374V624.236H220.387V623.135H223.951V611.455L220.555 613.471L219.968 612.536L224.161 609.959H225.293V623.135Z" fill="url(#paint1_linear_175_188)" fill-opacity="0.6"/>
<path d="M224.035 633.502C225.53 633.502 226.662 634.133 227.431 635.393C228.213 636.64 228.605 638.455 228.605 640.838C228.605 643.221 228.213 645.043 227.431 646.304C226.662 647.565 225.53 648.195 224.035 648.195C222.554 648.195 221.422 647.565 220.639 646.304C219.856 645.043 219.465 643.221 219.465 640.838C219.465 638.469 219.856 636.654 220.639 635.393C221.422 634.133 222.554 633.502 224.035 633.502ZM220.953 640.838C220.953 642.529 221.107 643.852 221.415 644.808L226.068 635.601C225.579 634.95 224.901 634.624 224.035 634.624C223.071 634.624 222.316 635.137 221.771 636.162C221.226 637.174 220.953 638.732 220.953 640.838ZM224.035 647.052C225.013 647.052 225.775 646.546 226.32 645.535C226.865 644.51 227.137 642.944 227.137 640.838C227.137 639.051 226.963 637.665 226.613 636.682L221.96 645.971C222.463 646.692 223.154 647.052 224.035 647.052Z" fill="url(#paint2_linear_175_188)" fill-opacity="0.6"/>
<path d="M225.293 670.637H228.374V671.738H220.387V670.637H223.951V658.957L220.555 660.973L219.968 660.038L224.161 657.461H225.293V670.637Z" fill="url(#paint3_linear_175_188)" fill-opacity="0.6"/>
<path d="M225.293 694.388H228.374V695.489H220.387V694.388H223.951V682.708L220.555 684.724L219.968 683.789L224.161 681.212H225.293V694.388Z" fill="url(#paint4_linear_175_188)" fill-opacity="0.6"/>
<path d="M224.035 704.755C225.53 704.755 226.662 705.386 227.431 706.646C228.213 707.893 228.605 709.708 228.605 712.091C228.605 714.474 228.213 716.296 227.431 717.557C226.662 718.818 225.53 719.448 224.035 719.448C222.554 719.448 221.422 718.818 220.639 717.557C219.856 716.296 219.465 714.474 219.465 712.091C219.465 709.722 219.856 707.907 220.639 706.646C221.422 705.386 222.554 704.755 224.035 704.755ZM220.953 712.091C220.953 713.782 221.107 715.105 221.415 716.061L226.068 706.854C225.579 706.203 224.901 705.878 224.035 705.878C223.071 705.878 222.316 706.39 221.771 707.415C221.226 708.427 220.953 709.985 220.953 712.091ZM224.035 718.305C225.013 718.305 225.775 717.8 226.32 716.788C226.865 715.763 227.137 714.197 227.137 712.091C227.137 710.304 226.963 708.919 226.613 707.935L221.96 717.225C222.463 717.945 223.154 718.305 224.035 718.305Z" fill="url(#paint5_linear_175_188)" fill-opacity="0.6"/>
<path d="M225.293 741.89H228.374V742.992H220.387V741.89H223.951V730.21L220.555 732.226L219.968 731.291L224.161 728.714H225.293V741.89Z" fill="url(#paint6_linear_175_188)" fill-opacity="0.6"/>
<path d="M224.035 752.257C225.53 752.257 226.662 752.888 227.431 754.149C228.213 755.396 228.605 757.211 228.605 759.594C228.605 761.977 228.213 763.798 227.431 765.059C226.662 766.32 225.53 766.95 224.035 766.95C222.554 766.95 221.422 766.32 220.639 765.059C219.856 763.798 219.465 761.977 219.465 759.594C219.465 757.224 219.856 755.409 220.639 754.149C221.422 752.888 222.554 752.257 224.035 752.257ZM220.953 759.594C220.953 761.284 221.107 762.607 221.415 763.563L226.068 754.356C225.579 753.705 224.901 753.38 224.035 753.38C223.071 753.38 222.316 753.892 221.771 754.918C221.226 755.929 220.953 757.488 220.953 759.594ZM224.035 765.807C225.013 765.807 225.775 765.302 226.32 764.29C226.865 763.265 227.137 761.699 227.137 759.594C227.137 757.806 226.963 756.421 226.613 755.437L221.96 764.727C222.463 765.447 223.154 765.807 224.035 765.807Z" fill="url(#paint7_linear_175_188)" fill-opacity="0.6"/>
<path d="M224.035 776.008C225.53 776.008 226.662 776.639 227.431 777.9C228.213 779.147 228.605 780.962 228.605 783.345C228.605 785.728 228.213 787.549 227.431 788.81C226.662 790.071 225.53 790.701 224.035 790.701C222.554 790.701 221.422 790.071 220.639 788.81C219.856 787.549 219.465 785.728 219.465 783.345C219.465 780.975 219.856 779.16 220.639 777.9C221.422 776.639 222.554 776.008 224.035 776.008ZM220.953 783.345C220.953 785.035 221.107 786.358 221.415 787.314L226.068 778.107C225.579 777.456 224.901 777.131 224.035 777.131C223.071 777.131 222.316 777.643 221.771 778.669C221.226 779.68 220.953 781.239 220.953 783.345ZM224.035 789.558C225.013 789.558 225.775 789.053 226.32 788.041C226.865 787.016 227.137 785.451 227.137 783.345C227.137 781.557 226.963 780.172 226.613 779.188L221.96 788.478C222.463 789.198 223.154 789.558 224.035 789.558Z" fill="url(#paint8_linear_175_188)" fill-opacity="0.6"/>
<path d="M225.293 813.143H228.374V814.245H220.387V813.143H223.951V801.464L220.555 803.48L219.968 802.544L224.161 799.967H225.293V813.143Z" fill="url(#paint9_linear_175_188)" fill-opacity="0.6"/>
<path d="M224.035 823.511C225.53 823.511 226.662 824.141 227.431 825.402C228.213 826.649 228.605 828.464 228.605 830.847C228.605 833.23 228.213 835.052 227.431 836.312C226.662 837.573 225.53 838.204 224.035 838.204C222.554 838.204 221.422 837.573 220.639 836.312C219.856 835.052 219.465 833.23 219.465 830.847C219.465 828.478 219.856 826.663 220.639 825.402C221.422 824.141 222.554 823.511 224.035 823.511ZM220.953 830.847C220.953 832.537 221.107 833.86 221.415 834.816L226.068 825.61C225.579 824.958 224.901 824.633 224.035 824.633C223.071 824.633 222.316 825.145 221.771 826.171C221.226 827.182 220.953 828.741 220.953 830.847ZM224.035 837.061C225.013 837.061 225.775 836.555 226.32 835.543C226.865 834.518 227.137 832.953 227.137 830.847C227.137 829.059 226.963 827.674 226.613 826.69L221.96 835.98C222.463 836.7 223.154 837.061 224.035 837.061Z" fill="url(#paint10_linear_175_188)" fill-opacity="0.6"/>
<path d="M225.293 860.645H228.374V861.747H220.387V860.645H223.951V848.966L220.555 850.982L219.968 850.046L224.161 847.469H225.293V860.645Z" fill="url(#paint11_linear_175_188)" fill-opacity="0.6"/>
<path d="M225.293 884.396H228.374V885.498H220.387V884.396H223.951V872.717L220.555 874.733L219.968 873.798L224.161 871.221H225.293V884.396Z" fill="url(#paint12_linear_175_188)" fill-opacity="0.6"/>
<path d="M262.965 633.502C264.46 633.502 265.592 634.133 266.361 635.393C267.144 636.64 267.535 638.455 267.535 640.838C267.535 643.221 267.144 645.043 266.361 646.304C265.592 647.565 264.46 648.195 262.965 648.195C261.484 648.195 260.352 647.565 259.569 646.304C258.787 645.043 258.395 643.221 258.395 640.838C258.395 638.469 258.787 636.654 259.569 635.393C260.352 634.133 261.484 633.502 262.965 633.502ZM259.884 640.838C259.884 642.529 260.037 643.852 260.345 644.808L264.998 635.601C264.509 634.95 263.832 634.624 262.965 634.624C262.001 634.624 261.246 635.137 260.701 636.162C260.156 637.174 259.884 638.732 259.884 640.838ZM262.965 647.052C263.943 647.052 264.705 646.546 265.25 645.535C265.795 644.51 266.068 642.944 266.068 640.838C266.068 639.051 265.893 637.665 265.543 636.682L260.89 645.971C261.393 646.692 262.085 647.052 262.965 647.052Z" fill="url(#paint13_linear_175_188)" fill-opacity="0.6"/>
<path d="M264.223 670.637H267.304V671.738H259.318V670.637H262.881V658.957L259.485 660.973L258.898 660.038L263.091 657.461H264.223V670.637Z" fill="url(#paint14_linear_175_188)" fill-opacity="0.6"/>
<path d="M262.965 681.004C264.46 681.004 265.592 681.635 266.361 682.895C267.144 684.142 267.535 685.957 267.535 688.34C267.535 690.723 267.144 692.545 266.361 693.806C265.592 695.067 264.46 695.697 262.965 695.697C261.484 695.697 260.352 695.067 259.569 693.806C258.787 692.545 258.395 690.723 258.395 688.34C258.395 685.971 258.787 684.156 259.569 682.895C260.352 681.635 261.484 681.004 262.965 681.004ZM259.884 688.34C259.884 690.031 260.037 691.354 260.345 692.31L264.998 683.103C264.509 682.452 263.832 682.126 262.965 682.126C262.001 682.126 261.246 682.639 260.701 683.664C260.156 684.676 259.884 686.234 259.884 688.34ZM262.965 694.554C263.943 694.554 264.705 694.049 265.25 693.037C265.795 692.012 266.068 690.446 266.068 688.34C266.068 686.553 265.893 685.168 265.543 684.184L260.89 693.474C261.393 694.194 262.085 694.554 262.965 694.554Z" fill="url(#paint15_linear_175_188)" fill-opacity="0.6"/>
<path d="M262.965 704.755C264.46 704.755 265.592 705.386 266.361 706.646C267.144 707.893 267.535 709.708 267.535 712.091C267.535 714.474 267.144 716.296 266.361 717.557C265.592 718.818 264.46 719.448 262.965 719.448C261.484 719.448 260.352 718.818 259.569 717.557C258.787 716.296 258.395 714.474 258.395 712.091C258.395 709.722 258.787 707.907 259.569 706.646C260.352 705.386 261.484 704.755 262.965 704.755ZM259.884 712.091C259.884 713.782 260.037 715.105 260.345 716.061L264.998 706.854C264.509 706.203 263.832 705.878 262.965 705.878C262.001 705.878 261.246 706.39 260.701 707.415C260.156 708.427 259.884 709.985 259.884 712.091ZM262.965 718.305C263.943 718.305 264.705 717.8 265.25 716.788C265.795 715.763 266.068 714.197 266.068 712.091C266.068 710.304 265.893 708.919 265.543 707.935L260.89 717.225C261.393 717.945 262.085 718.305 262.965 718.305Z" fill="url(#paint16_linear_175_188)" fill-opacity="0.6"/>
<path d="M264.223 741.89H267.304V742.992H259.318V741.89H262.881V730.21L259.485 732.226L258.898 731.291L263.091 728.714H264.223V741.89Z" fill="url(#paint17_linear_175_188)" fill-opacity="0.6"/>
<path d="M262.965 752.257C264.46 752.257 265.592 752.888 266.361 754.149C267.144 755.396 267.535 757.211 267.535 759.594C267.535 761.977 267.144 763.798 266.361 765.059C265.592 766.32 264.46 766.95 262.965 766.95C261.484 766.95 260.352 766.32 259.569 765.059C258.787 763.798 258.395 761.977 258.395 759.594C258.395 757.224 258.787 755.409 259.569 754.149C260.352 752.888 261.484 752.257 262.965 752.257ZM259.884 759.594C259.884 761.284 260.037 762.607 260.345 763.563L264.998 754.356C264.509 753.705 263.832 753.38 262.965 753.38C262.001 753.38 261.246 753.892 260.701 754.918C260.156 755.929 259.884 757.488 259.884 759.594ZM262.965 765.807C263.943 765.807 264.705 765.302 265.25 764.29C265.795 763.265 266.068 761.699 266.068 759.594C266.068 757.806 265.893 756.421 265.543 755.437L260.89 764.727C261.393 765.447 262.085 765.807 262.965 765.807Z" fill="url(#paint18_linear_175_188)" fill-opacity="0.6"/>
<path d="M264.223 789.392H267.304V790.494H259.318V789.392H262.881V777.713L259.485 779.728L258.898 778.793L263.091 776.216H264.223V789.392Z" fill="url(#paint19_linear_175_188)" fill-opacity="0.6"/>
<path d="M262.965 799.76C264.46 799.76 265.592 800.39 266.361 801.651C267.144 802.898 267.535 804.713 267.535 807.096C267.535 809.479 267.144 811.301 266.361 812.561C265.592 813.822 264.46 814.453 262.965 814.453C261.484 814.453 260.352 813.822 259.569 812.561C258.787 811.301 258.395 809.479 258.395 807.096C258.395 804.726 258.787 802.911 259.569 801.651C260.352 800.39 261.484 799.76 262.965 799.76ZM259.884 807.096C259.884 808.786 260.037 810.109 260.345 811.065L264.998 801.859C264.509 801.207 263.832 800.882 262.965 800.882C262.001 800.882 261.246 801.394 260.701 802.42C260.156 803.431 259.884 804.99 259.884 807.096ZM262.965 813.31C263.943 813.31 264.705 812.804 265.25 811.792C265.795 810.767 266.068 809.202 266.068 807.096C266.068 805.308 265.893 803.923 265.543 802.939L260.89 812.229C261.393 812.949 262.085 813.31 262.965 813.31Z" fill="url(#paint20_linear_175_188)" fill-opacity="0.6"/>
<path d="M262.965 823.511C264.46 823.511 265.592 824.141 266.361 825.402C267.144 826.649 267.535 828.464 267.535 830.847C267.535 833.23 267.144 835.052 266.361 836.312C265.592 837.573 264.46 838.204 262.965 838.204C261.484 838.204 260.352 837.573 259.569 836.312C258.787 835.052 258.395 833.23 258.395 830.847C258.395 828.478 258.787 826.663 259.569 825.402C260.352 824.141 261.484 823.511 262.965 823.511ZM259.884 830.847C259.884 832.537 260.037 833.86 260.345 834.816L264.998 825.61C264.509 824.958 263.832 824.633 262.965 824.633C262.001 824.633 261.246 825.145 260.701 826.171C260.156 827.182 259.884 828.741 259.884 830.847ZM262.965 837.061C263.943 837.061 264.705 836.555 265.25 835.543C265.795 834.518 266.068 832.953 266.068 830.847C266.068 829.059 265.893 827.674 265.543 826.69L260.89 835.98C261.393 836.7 262.085 837.061 262.965 837.061Z" fill="url(#paint21_linear_175_188)" fill-opacity="0.6"/>
<path d="M264.223 860.645H267.304V861.747H259.318V860.645H262.881V848.966L259.485 850.982L258.898 850.046L263.091 847.469H264.223V860.645Z" fill="url(#paint22_linear_175_188)" fill-opacity="0.6"/>
<path d="M262.965 871.013C264.46 871.013 265.592 871.643 266.361 872.904C267.144 874.151 267.535 875.966 267.535 878.349C267.535 880.732 267.144 882.554 266.361 883.815C265.592 885.075 264.46 885.706 262.965 885.706C261.484 885.706 260.352 885.075 259.569 883.815C258.787 882.554 258.395 880.732 258.395 878.349C258.395 875.98 258.787 874.165 259.569 872.904C260.352 871.643 261.484 871.013 262.965 871.013ZM259.884 878.349C259.884 880.039 260.037 881.362 260.345 882.318L264.998 873.112C264.509 872.461 263.832 872.135 262.965 872.135C262.001 872.135 261.246 872.648 260.701 873.673C260.156 874.684 259.884 876.243 259.884 878.349ZM262.965 884.563C263.943 884.563 264.705 884.057 265.25 883.046C265.795 882.02 266.068 880.455 266.068 878.349C266.068 876.562 265.893 875.176 265.543 874.192L260.89 883.482C261.393 884.202 262.085 884.563 262.965 884.563Z" fill="url(#paint23_linear_175_188)" fill-opacity="0.6"/>
<path d="M264.223 908.148H267.304V909.249H259.318V908.148H262.881V896.468L259.485 898.484L258.898 897.549L263.091 894.972H264.223V908.148Z" fill="url(#paint24_linear_175_188)" fill-opacity="0.6"/>
<path d="M264.223 931.899H267.304V933H259.318V931.899H262.881V920.219L259.485 922.235L258.898 921.3L263.091 918.723H264.223V931.899Z" fill="url(#paint25_linear_175_188)" fill-opacity="0.6"/>
<path d="M204.57 657.253C206.065 657.253 207.197 657.884 207.966 659.144C208.748 660.391 209.14 662.206 209.14 664.589C209.14 666.972 208.748 668.794 207.966 670.055C207.197 671.316 206.065 671.946 204.57 671.946C203.088 671.946 201.956 671.316 201.174 670.055C200.391 668.794 200 666.972 200 664.589C200 662.22 200.391 660.405 201.174 659.144C201.956 657.884 203.088 657.253 204.57 657.253ZM201.488 664.589C201.488 666.28 201.642 667.603 201.95 668.559L206.603 659.352C206.114 658.701 205.436 658.375 204.57 658.375C203.606 658.375 202.851 658.888 202.306 659.913C201.761 660.925 201.488 662.483 201.488 664.589ZM204.57 670.803C205.548 670.803 206.31 670.297 206.855 669.286C207.4 668.261 207.672 666.695 207.672 664.589C207.672 662.802 207.498 661.417 207.148 660.433L202.495 669.722C202.998 670.443 203.689 670.803 204.57 670.803Z" fill="url(#paint26_linear_175_188)" fill-opacity="0.6"/>
<path d="M204.57 681.004C206.065 681.004 207.197 681.635 207.966 682.895C208.748 684.142 209.14 685.957 209.14 688.34C209.14 690.723 208.748 692.545 207.966 693.806C207.197 695.067 206.065 695.697 204.57 695.697C203.088 695.697 201.956 695.067 201.174 693.806C200.391 692.545 200 690.723 200 688.34C200 685.971 200.391 684.156 201.174 682.895C201.956 681.635 203.088 681.004 204.57 681.004ZM201.488 688.34C201.488 690.031 201.642 691.354 201.95 692.31L206.603 683.103C206.114 682.452 205.436 682.126 204.57 682.126C203.606 682.126 202.851 682.639 202.306 683.664C201.761 684.676 201.488 686.234 201.488 688.34ZM204.57 694.554C205.548 694.554 206.31 694.049 206.855 693.037C207.4 692.012 207.672 690.446 207.672 688.34C207.672 686.553 207.498 685.168 207.148 684.184L202.495 693.474C202.998 694.194 203.689 694.554 204.57 694.554Z" fill="url(#paint27_linear_175_188)" fill-opacity="0.6"/>
<path d="M205.828 718.139H208.909V719.24H200.922V718.139H204.486V706.459L201.09 708.475L200.503 707.54L204.696 704.963H205.828V718.139Z" fill="url(#paint28_linear_175_188)" fill-opacity="0.6"/>
<path d="M204.57 728.506C206.065 728.506 207.197 729.137 207.966 730.398C208.748 731.644 209.14 733.459 209.14 735.842C209.14 738.225 208.748 740.047 207.966 741.308C207.197 742.569 206.065 743.199 204.57 743.199C203.088 743.199 201.956 742.569 201.174 741.308C200.391 740.047 200 738.225 200 735.842C200 733.473 200.391 731.658 201.174 730.398C201.956 729.137 203.088 728.506 204.57 728.506ZM201.488 735.842C201.488 737.533 201.642 738.856 201.95 739.812L206.603 730.605C206.114 729.954 205.436 729.629 204.57 729.629C203.606 729.629 202.851 730.141 202.306 731.166C201.761 732.178 201.488 733.737 201.488 735.842ZM204.57 742.056C205.548 742.056 206.31 741.551 206.855 740.539C207.4 739.514 207.672 737.948 207.672 735.842C207.672 734.055 207.498 732.67 207.148 731.686L202.495 740.976C202.998 741.696 203.689 742.056 204.57 742.056Z" fill="url(#paint29_linear_175_188)" fill-opacity="0.6"/>
<path d="M205.828 765.641H208.909V766.743H200.922V765.641H204.486V753.962L201.09 755.977L200.503 755.042L204.696 752.465H205.828V765.641Z" fill="url(#paint30_linear_175_188)" fill-opacity="0.6"/>
<path d="M205.828 789.392H208.909V790.494H200.922V789.392H204.486V777.713L201.09 779.728L200.503 778.793L204.696 776.216H205.828V789.392Z" fill="url(#paint31_linear_175_188)" fill-opacity="0.6"/>
<path d="M244.758 623.135H247.839V624.236H239.853V623.135H243.416V611.455L240.02 613.471L239.433 612.536L243.626 609.959H244.758V623.135Z" fill="url(#paint32_linear_175_188)" fill-opacity="0.6"/>
<path d="M243.5 633.502C244.995 633.502 246.127 634.133 246.896 635.393C247.679 636.64 248.07 638.455 248.07 640.838C248.07 643.221 247.679 645.043 246.896 646.304C246.127 647.565 244.995 648.195 243.5 648.195C242.019 648.195 240.887 647.565 240.104 646.304C239.321 645.043 238.93 643.221 238.93 640.838C238.93 638.469 239.321 636.654 240.104 635.393C240.887 634.133 242.019 633.502 243.5 633.502ZM240.419 640.838C240.419 642.529 240.572 643.852 240.88 644.808L245.533 635.601C245.044 634.95 244.366 634.624 243.5 634.624C242.536 634.624 241.781 635.137 241.236 636.162C240.691 637.174 240.419 638.732 240.419 640.838ZM243.5 647.052C244.478 647.052 245.24 646.546 245.785 645.535C246.33 644.51 246.602 642.944 246.602 640.838C246.602 639.051 246.428 637.665 246.078 636.682L241.425 645.971C241.928 646.692 242.62 647.052 243.5 647.052Z" fill="url(#paint33_linear_175_188)" fill-opacity="0.6"/>
<path d="M244.758 670.637H247.839V671.738H239.853V670.637H243.416V658.957L240.02 660.973L239.433 660.038L243.626 657.461H244.758V670.637Z" fill="url(#paint34_linear_175_188)" fill-opacity="0.6"/>
<path d="M244.758 694.388H247.839V695.489H239.853V694.388H243.416V682.708L240.02 684.724L239.433 683.789L243.626 681.212H244.758V694.388Z" fill="url(#paint35_linear_175_188)" fill-opacity="0.6"/>
<path d="M243.5 704.755C244.995 704.755 246.127 705.386 246.896 706.646C247.679 707.893 248.07 709.708 248.07 712.091C248.07 714.474 247.679 716.296 246.896 717.557C246.127 718.818 244.995 719.448 243.5 719.448C242.019 719.448 240.887 718.818 240.104 717.557C239.321 716.296 238.93 714.474 238.93 712.091C238.93 709.722 239.321 707.907 240.104 706.646C240.887 705.386 242.019 704.755 243.5 704.755ZM240.419 712.091C240.419 713.782 240.572 715.105 240.88 716.061L245.533 706.854C245.044 706.203 244.366 705.878 243.5 705.878C242.536 705.878 241.781 706.39 241.236 707.415C240.691 708.427 240.419 709.985 240.419 712.091ZM243.5 718.305C244.478 718.305 245.24 717.8 245.785 716.788C246.33 715.763 246.602 714.197 246.602 712.091C246.602 710.304 246.428 708.919 246.078 707.935L241.425 717.225C241.928 717.945 242.62 718.305 243.5 718.305Z" fill="url(#paint36_linear_175_188)" fill-opacity="0.6"/>
<path d="M244.758 741.89H247.839V742.992H239.853V741.89H243.416V730.21L240.02 732.226L239.433 731.291L243.626 728.714H244.758V741.89Z" fill="url(#paint37_linear_175_188)" fill-opacity="0.6"/>
<path d="M244.758 765.641H247.839V766.743H239.853V765.641H243.416V753.962L240.02 755.977L239.433 755.042L243.626 752.465H244.758V765.641Z" fill="url(#paint38_linear_175_188)" fill-opacity="0.6"/>
<path d="M243.5 776.008C244.995 776.008 246.127 776.639 246.896 777.9C247.679 779.147 248.07 780.962 248.07 783.345C248.07 785.728 247.679 787.549 246.896 788.81C246.127 790.071 244.995 790.701 243.5 790.701C242.019 790.701 240.887 790.071 240.104 788.81C239.321 787.549 238.93 785.728 238.93 783.345C238.93 780.975 239.321 779.16 240.104 777.9C240.887 776.639 242.019 776.008 243.5 776.008ZM240.419 783.345C240.419 785.035 240.572 786.358 240.88 787.314L245.533 778.107C245.044 777.456 244.366 777.131 243.5 777.131C242.536 777.131 241.781 777.643 241.236 778.669C240.691 779.68 240.419 781.239 240.419 783.345ZM243.5 789.558C244.478 789.558 245.24 789.053 245.785 788.041C246.33 787.016 246.602 785.451 246.602 783.345C246.602 781.557 246.428 780.172 246.078 779.188L241.425 788.478C241.928 789.198 242.62 789.558 243.5 789.558Z" fill="url(#paint39_linear_175_188)" fill-opacity="0.6"/>
<path d="M244.758 813.143H247.839V814.245H239.853V813.143H243.416V801.464L240.02 803.48L239.433 802.544L243.626 799.967H244.758V813.143Z" fill="url(#paint40_linear_175_188)" fill-opacity="0.6"/>
<path d="M243.5 823.511C244.995 823.511 246.127 824.141 246.896 825.402C247.679 826.649 248.07 828.464 248.07 830.847C248.07 833.23 247.679 835.052 246.896 836.312C246.127 837.573 244.995 838.204 243.5 838.204C242.019 838.204 240.887 837.573 240.104 836.312C239.321 835.052 238.93 833.23 238.93 830.847C238.93 828.478 239.321 826.663 240.104 825.402C240.887 824.141 242.019 823.511 243.5 823.511ZM240.419 830.847C240.419 832.537 240.572 833.86 240.88 834.816L245.533 825.61C245.044 824.958 244.366 824.633 243.5 824.633C242.536 824.633 241.781 825.145 241.236 826.171C240.691 827.182 240.419 828.741 240.419 830.847ZM243.5 837.061C244.478 837.061 245.24 836.555 245.785 835.543C246.33 834.518 246.602 832.953 246.602 830.847C246.602 829.059 246.428 827.674 246.078 826.69L241.425 835.98C241.928 836.7 242.62 837.061 243.5 837.061Z" fill="url(#paint41_linear_175_188)" fill-opacity="0.6"/>
<path d="M282.43 609.751C283.926 609.751 285.057 610.381 285.826 611.642C286.609 612.889 287 614.704 287 617.087C287 619.47 286.609 621.292 285.826 622.553C285.057 623.814 283.926 624.444 282.43 624.444C280.949 624.444 279.817 623.814 279.034 622.553C278.252 621.292 277.86 619.47 277.86 617.087C277.86 614.718 278.252 612.903 279.034 611.642C279.817 610.381 280.949 609.751 282.43 609.751ZM279.349 617.087C279.349 618.777 279.502 620.101 279.81 621.057L284.464 611.85C283.974 611.199 283.297 610.873 282.43 610.873C281.466 610.873 280.711 611.386 280.166 612.411C279.621 613.423 279.349 614.981 279.349 617.087ZM282.43 623.301C283.408 623.301 284.17 622.795 284.715 621.784C285.26 620.759 285.533 619.193 285.533 617.087C285.533 615.3 285.358 613.914 285.009 612.931L280.355 622.22C280.858 622.941 281.55 623.301 282.43 623.301Z" fill="url(#paint42_linear_175_188)" fill-opacity="0.6"/>
<path d="M283.688 646.886H286.769V647.987H278.783V646.886H282.346V635.206L278.95 637.222L278.363 636.287L282.556 633.71H283.688V646.886Z" fill="url(#paint43_linear_175_188)" fill-opacity="0.6"/>
<path d="M283.688 670.637H286.769V671.738H278.783V670.637H282.346V658.957L278.95 660.973L278.363 660.038L282.556 657.461H283.688V670.637Z" fill="url(#paint44_linear_175_188)" fill-opacity="0.6"/>
<path d="M282.43 681.004C283.926 681.004 285.057 681.635 285.826 682.895C286.609 684.142 287 685.957 287 688.34C287 690.723 286.609 692.545 285.826 693.806C285.057 695.067 283.926 695.697 282.43 695.697C280.949 695.697 279.817 695.067 279.034 693.806C278.252 692.545 277.86 690.723 277.86 688.34C277.86 685.971 278.252 684.156 279.034 682.895C279.817 681.635 280.949 681.004 282.43 681.004ZM279.349 688.34C279.349 690.031 279.502 691.354 279.81 692.31L284.464 683.103C283.974 682.452 283.297 682.126 282.43 682.126C281.466 682.126 280.711 682.639 280.166 683.664C279.621 684.676 279.349 686.234 279.349 688.34ZM282.43 694.554C283.408 694.554 284.17 694.049 284.715 693.037C285.26 692.012 285.533 690.446 285.533 688.34C285.533 686.553 285.358 685.168 285.009 684.184L280.355 693.474C280.858 694.194 281.55 694.554 282.43 694.554Z" fill="url(#paint45_linear_175_188)" fill-opacity="0.6"/>
<path d="M282.43 704.755C283.926 704.755 285.057 705.386 285.826 706.646C286.609 707.893 287 709.708 287 712.091C287 714.474 286.609 716.296 285.826 717.557C285.057 718.818 283.926 719.448 282.43 719.448C280.949 719.448 279.817 718.818 279.034 717.557C278.252 716.296 277.86 714.474 277.86 712.091C277.86 709.722 278.252 707.907 279.034 706.646C279.817 705.386 280.949 704.755 282.43 704.755ZM279.349 712.091C279.349 713.782 279.502 715.105 279.81 716.061L284.464 706.854C283.974 706.203 283.297 705.878 282.43 705.878C281.466 705.878 280.711 706.39 280.166 707.415C279.621 708.427 279.349 709.985 279.349 712.091ZM282.43 718.305C283.408 718.305 284.17 717.8 284.715 716.788C285.26 715.763 285.533 714.197 285.533 712.091C285.533 710.304 285.358 708.919 285.009 707.935L280.355 717.225C280.858 717.945 281.55 718.305 282.43 718.305Z" fill="url(#paint46_linear_175_188)" fill-opacity="0.6"/>
<g opacity="0.6">
<path d="M1110.93 286C1112.36 286 1113.44 286.605 1114.17 287.815C1114.92 289.011 1115.29 290.753 1115.29 293.04C1115.29 295.327 1114.92 297.075 1114.17 298.285C1113.44 299.495 1112.36 300.1 1110.93 300.1C1109.52 300.1 1108.44 299.495 1107.69 298.285C1106.94 297.075 1106.57 295.327 1106.57 293.04C1106.57 290.767 1106.94 289.025 1107.69 287.815C1108.44 286.605 1109.52 286 1110.93 286ZM1107.99 293.04C1107.99 294.662 1108.14 295.932 1108.43 296.849L1112.87 288.014C1112.4 287.389 1111.76 287.077 1110.93 287.077C1110.01 287.077 1109.29 287.569 1108.77 288.553C1108.25 289.523 1107.99 291.019 1107.99 293.04ZM1110.93 299.003C1111.86 299.003 1112.59 298.518 1113.11 297.547C1113.63 296.564 1113.89 295.061 1113.89 293.04C1113.89 291.325 1113.72 289.995 1113.39 289.051L1108.95 297.966C1109.43 298.658 1110.09 299.003 1110.93 299.003Z" fill="url(#paint47_linear_175_188)"/>
<path d="M1112.13 321.637H1115.07V322.694H1107.45V321.637H1110.85V310.428L1107.61 312.363L1107.05 311.465L1111.05 308.992H1112.13V321.637Z" fill="url(#paint48_linear_175_188)"/>
<path d="M1110.93 331.586C1112.36 331.586 1113.44 332.191 1114.17 333.4C1114.92 334.597 1115.29 336.339 1115.29 338.626C1115.29 340.913 1114.92 342.661 1114.17 343.871C1113.44 345.081 1112.36 345.686 1110.93 345.686C1109.52 345.686 1108.44 345.081 1107.69 343.871C1106.94 342.661 1106.57 340.913 1106.57 338.626C1106.57 336.352 1106.94 334.61 1107.69 333.4C1108.44 332.191 1109.52 331.586 1110.93 331.586ZM1107.99 338.626C1107.99 340.248 1108.14 341.518 1108.43 342.435L1112.87 333.6C1112.4 332.975 1111.76 332.663 1110.93 332.663C1110.01 332.663 1109.29 333.155 1108.77 334.138C1108.25 335.109 1107.99 336.605 1107.99 338.626ZM1110.93 344.589C1111.86 344.589 1112.59 344.104 1113.11 343.133C1113.63 342.149 1113.89 340.647 1113.89 338.626C1113.89 336.911 1113.72 335.581 1113.39 334.637L1108.95 343.552C1109.43 344.243 1110.09 344.589 1110.93 344.589Z" fill="url(#paint49_linear_175_188)"/>
<path d="M1112.13 367.222H1115.07V368.279H1107.45V367.222H1110.85V356.014L1107.61 357.948L1107.05 357.051L1111.05 354.578H1112.13V367.222Z" fill="url(#paint50_linear_175_188)"/>
<path d="M1112.13 390.015H1115.07V391.072H1107.45V390.015H1110.85V378.807L1107.61 380.741L1107.05 379.844L1111.05 377.371H1112.13V390.015Z" fill="url(#paint51_linear_175_188)"/>
<path d="M1110.93 399.964C1112.36 399.964 1113.44 400.569 1114.17 401.779C1114.92 402.976 1115.29 404.717 1115.29 407.004C1115.29 409.291 1114.92 411.039 1114.17 412.249C1113.44 413.459 1112.36 414.064 1110.93 414.064C1109.52 414.064 1108.44 413.459 1107.69 412.249C1106.94 411.039 1106.57 409.291 1106.57 407.004C1106.57 404.731 1106.94 402.989 1107.69 401.779C1108.44 400.569 1109.52 399.964 1110.93 399.964ZM1107.99 407.004C1107.99 408.626 1108.14 409.896 1108.43 410.813L1112.87 401.978C1112.4 401.353 1111.76 401.041 1110.93 401.041C1110.01 401.041 1109.29 401.533 1108.77 402.517C1108.25 403.487 1107.99 404.983 1107.99 407.004ZM1110.93 412.967C1111.86 412.967 1112.59 412.482 1113.11 411.511C1113.63 410.528 1113.89 409.025 1113.89 407.004C1113.89 405.289 1113.72 403.959 1113.39 403.015L1108.95 411.93C1109.43 412.622 1110.09 412.967 1110.93 412.967Z" fill="url(#paint52_linear_175_188)"/>
<path d="M1112.13 435.601H1115.07V436.658H1107.45V435.601H1110.85V424.392L1107.61 426.327L1107.05 425.429L1111.05 422.956H1112.13V435.601Z" fill="url(#paint53_linear_175_188)"/>
<path d="M1110.93 445.55C1112.36 445.55 1113.44 446.155 1114.17 447.365C1114.92 448.561 1115.29 450.303 1115.29 452.59C1115.29 454.877 1114.92 456.625 1114.17 457.835C1113.44 459.045 1112.36 459.65 1110.93 459.65C1109.52 459.65 1108.44 459.045 1107.69 457.835C1106.94 456.625 1106.57 454.877 1106.57 452.59C1106.57 450.316 1106.94 448.574 1107.69 447.365C1108.44 446.155 1109.52 445.55 1110.93 445.55ZM1107.99 452.59C1107.99 454.212 1108.14 455.482 1108.43 456.399L1112.87 447.564C1112.4 446.939 1111.76 446.627 1110.93 446.627C1110.01 446.627 1109.29 447.119 1108.77 448.102C1108.25 449.073 1107.99 450.569 1107.99 452.59ZM1110.93 458.553C1111.86 458.553 1112.59 458.068 1113.11 457.097C1113.63 456.113 1113.89 454.611 1113.89 452.59C1113.89 450.875 1113.72 449.545 1113.39 448.601L1108.95 457.516C1109.43 458.207 1110.09 458.553 1110.93 458.553Z" fill="url(#paint54_linear_175_188)"/>
<path d="M1110.93 468.342C1112.36 468.342 1113.44 468.947 1114.17 470.157C1114.92 471.354 1115.29 473.096 1115.29 475.383C1115.29 477.669 1114.92 479.418 1114.17 480.628C1113.44 481.838 1112.36 482.443 1110.93 482.443C1109.52 482.443 1108.44 481.838 1107.69 480.628C1106.94 479.418 1106.57 477.669 1106.57 475.383C1106.57 473.109 1106.94 471.367 1107.69 470.157C1108.44 468.947 1109.52 468.342 1110.93 468.342ZM1107.99 475.383C1107.99 477.005 1108.14 478.274 1108.43 479.192L1112.87 470.357C1112.4 469.732 1111.76 469.419 1110.93 469.419C1110.01 469.419 1109.29 469.911 1108.77 470.895C1108.25 471.866 1107.99 473.362 1107.99 475.383ZM1110.93 481.346C1111.86 481.346 1112.59 480.86 1113.11 479.89C1113.63 478.906 1113.89 477.404 1113.89 475.383C1113.89 473.667 1113.72 472.338 1113.39 471.394L1108.95 480.309C1109.43 481 1110.09 481.346 1110.93 481.346Z" fill="url(#paint55_linear_175_188)"/>
<path d="M1112.13 503.979H1115.07V505.036H1107.45V503.979H1110.85V492.771L1107.61 494.705L1107.05 493.808L1111.05 491.335H1112.13V503.979Z" fill="url(#paint56_linear_175_188)"/>
<path d="M1110.93 513.928C1112.36 513.928 1113.44 514.533 1114.17 515.743C1114.92 516.94 1115.29 518.681 1115.29 520.968C1115.29 523.255 1114.92 525.003 1114.17 526.213C1113.44 527.423 1112.36 528.028 1110.93 528.028C1109.52 528.028 1108.44 527.423 1107.69 526.213C1106.94 525.003 1106.57 523.255 1106.57 520.968C1106.57 518.695 1106.94 516.953 1107.69 515.743C1108.44 514.533 1109.52 513.928 1110.93 513.928ZM1107.99 520.968C1107.99 522.59 1108.14 523.86 1108.43 524.777L1112.87 515.942C1112.4 515.317 1111.76 515.005 1110.93 515.005C1110.01 515.005 1109.29 515.497 1108.77 516.481C1108.25 517.451 1107.99 518.947 1107.99 520.968ZM1110.93 526.931C1111.86 526.931 1112.59 526.446 1113.11 525.475C1113.63 524.492 1113.89 522.989 1113.89 520.968C1113.89 519.253 1113.72 517.923 1113.39 516.979L1108.95 525.894C1109.43 526.586 1110.09 526.931 1110.93 526.931Z" fill="url(#paint57_linear_175_188)"/>
<path d="M1112.13 549.565H1115.07V550.622H1107.45V549.565H1110.85V538.356L1107.61 540.291L1107.05 539.393L1111.05 536.92H1112.13V549.565Z" fill="url(#paint58_linear_175_188)"/>
<path d="M1112.13 572.357H1115.07V573.414H1107.45V572.357H1110.85V561.149L1107.61 563.084L1107.05 562.186L1111.05 559.713H1112.13V572.357Z" fill="url(#paint59_linear_175_188)"/>
<path d="M1148.07 331.586C1149.5 331.586 1150.58 332.191 1151.31 333.4C1152.06 334.597 1152.43 336.339 1152.43 338.626C1152.43 340.913 1152.06 342.661 1151.31 343.871C1150.58 345.081 1149.5 345.686 1148.07 345.686C1146.66 345.686 1145.58 345.081 1144.83 343.871C1144.08 342.661 1143.71 340.913 1143.71 338.626C1143.71 336.352 1144.08 334.61 1144.83 333.4C1145.58 332.191 1146.66 331.586 1148.07 331.586ZM1145.13 338.626C1145.13 340.248 1145.28 341.518 1145.57 342.435L1150.01 333.6C1149.54 332.975 1148.9 332.663 1148.07 332.663C1147.15 332.663 1146.43 333.155 1145.91 334.138C1145.39 335.109 1145.13 336.605 1145.13 338.626ZM1148.07 344.589C1149 344.589 1149.73 344.104 1150.25 343.133C1150.77 342.149 1151.03 340.647 1151.03 338.626C1151.03 336.911 1150.86 335.581 1150.53 334.637L1146.09 343.552C1146.57 344.243 1147.23 344.589 1148.07 344.589Z" fill="url(#paint60_linear_175_188)"/>
<path d="M1149.27 367.222H1152.21V368.279H1144.59V367.222H1147.99V356.014L1144.75 357.948L1144.19 357.051L1148.19 354.578H1149.27V367.222Z" fill="url(#paint61_linear_175_188)"/>
<path d="M1148.07 377.171C1149.5 377.171 1150.58 377.776 1151.31 378.986C1152.06 380.183 1152.43 381.924 1152.43 384.211C1152.43 386.498 1152.06 388.247 1151.31 389.457C1150.58 390.666 1149.5 391.271 1148.07 391.271C1146.66 391.271 1145.58 390.666 1144.83 389.457C1144.08 388.247 1143.71 386.498 1143.71 384.211C1143.71 381.938 1144.08 380.196 1144.83 378.986C1145.58 377.776 1146.66 377.171 1148.07 377.171ZM1145.13 384.211C1145.13 385.833 1145.28 387.103 1145.57 388.021L1150.01 379.186C1149.54 378.561 1148.9 378.248 1148.07 378.248C1147.15 378.248 1146.43 378.74 1145.91 379.724C1145.39 380.695 1145.13 382.19 1145.13 384.211ZM1148.07 390.174C1149 390.174 1149.73 389.689 1150.25 388.719C1150.77 387.735 1151.03 386.232 1151.03 384.211C1151.03 382.496 1150.86 381.167 1150.53 380.223L1146.09 389.137C1146.57 389.829 1147.23 390.174 1148.07 390.174Z" fill="url(#paint62_linear_175_188)"/>
<path d="M1148.07 399.964C1149.5 399.964 1150.58 400.569 1151.31 401.779C1152.06 402.976 1152.43 404.717 1152.43 407.004C1152.43 409.291 1152.06 411.039 1151.31 412.249C1150.58 413.459 1149.5 414.064 1148.07 414.064C1146.66 414.064 1145.58 413.459 1144.83 412.249C1144.08 411.039 1143.71 409.291 1143.71 407.004C1143.71 404.731 1144.08 402.989 1144.83 401.779C1145.58 400.569 1146.66 399.964 1148.07 399.964ZM1145.13 407.004C1145.13 408.626 1145.28 409.896 1145.57 410.813L1150.01 401.978C1149.54 401.353 1148.9 401.041 1148.07 401.041C1147.15 401.041 1146.43 401.533 1145.91 402.517C1145.39 403.487 1145.13 404.983 1145.13 407.004ZM1148.07 412.967C1149 412.967 1149.73 412.482 1150.25 411.511C1150.77 410.528 1151.03 409.025 1151.03 407.004C1151.03 405.289 1150.86 403.959 1150.53 403.015L1146.09 411.93C1146.57 412.622 1147.23 412.967 1148.07 412.967Z" fill="url(#paint63_linear_175_188)"/>
<path d="M1149.27 435.601H1152.21V436.658H1144.59V435.601H1147.99V424.392L1144.75 426.327L1144.19 425.429L1148.19 422.956H1149.27V435.601Z" fill="url(#paint64_linear_175_188)"/>
<path d="M1148.07 445.55C1149.5 445.55 1150.58 446.155 1151.31 447.365C1152.06 448.561 1152.43 450.303 1152.43 452.59C1152.43 454.877 1152.06 456.625 1151.31 457.835C1150.58 459.045 1149.5 459.65 1148.07 459.65C1146.66 459.65 1145.58 459.045 1144.83 457.835C1144.08 456.625 1143.71 454.877 1143.71 452.59C1143.71 450.316 1144.08 448.574 1144.83 447.365C1145.58 446.155 1146.66 445.55 1148.07 445.55ZM1145.13 452.59C1145.13 454.212 1145.28 455.482 1145.57 456.399L1150.01 447.564C1149.54 446.939 1148.9 446.627 1148.07 446.627C1147.15 446.627 1146.43 447.119 1145.91 448.102C1145.39 449.073 1145.13 450.569 1145.13 452.59ZM1148.07 458.553C1149 458.553 1149.73 458.068 1150.25 457.097C1150.77 456.113 1151.03 454.611 1151.03 452.59C1151.03 450.875 1150.86 449.545 1150.53 448.601L1146.09 457.516C1146.57 458.207 1147.23 458.553 1148.07 458.553Z" fill="url(#paint65_linear_175_188)"/>
<path d="M1149.27 481.186H1152.21V482.243H1144.59V481.186H1147.99V469.978L1144.75 471.912L1144.19 471.015L1148.19 468.542H1149.27V481.186Z" fill="url(#paint66_linear_175_188)"/>
<path d="M1148.07 491.135C1149.5 491.135 1150.58 491.74 1151.31 492.95C1152.06 494.147 1152.43 495.888 1152.43 498.175C1152.43 500.462 1152.06 502.211 1151.31 503.421C1150.58 504.63 1149.5 505.235 1148.07 505.235C1146.66 505.235 1145.58 504.63 1144.83 503.421C1144.08 502.211 1143.71 500.462 1143.71 498.175C1143.71 495.902 1144.08 494.16 1144.83 492.95C1145.58 491.74 1146.66 491.135 1148.07 491.135ZM1145.13 498.175C1145.13 499.797 1145.28 501.067 1145.57 501.985L1150.01 493.15C1149.54 492.525 1148.9 492.212 1148.07 492.212C1147.15 492.212 1146.43 492.704 1145.91 493.688C1145.39 494.659 1145.13 496.154 1145.13 498.175ZM1148.07 504.139C1149 504.139 1149.73 503.653 1150.25 502.683C1150.77 501.699 1151.03 500.196 1151.03 498.175C1151.03 496.46 1150.86 495.131 1150.53 494.187L1146.09 503.101C1146.57 503.793 1147.23 504.139 1148.07 504.139Z" fill="url(#paint67_linear_175_188)"/>
<path d="M1148.07 513.928C1149.5 513.928 1150.58 514.533 1151.31 515.743C1152.06 516.94 1152.43 518.681 1152.43 520.968C1152.43 523.255 1152.06 525.003 1151.31 526.213C1150.58 527.423 1149.5 528.028 1148.07 528.028C1146.66 528.028 1145.58 527.423 1144.83 526.213C1144.08 525.003 1143.71 523.255 1143.71 520.968C1143.71 518.695 1144.08 516.953 1144.83 515.743C1145.58 514.533 1146.66 513.928 1148.07 513.928ZM1145.13 520.968C1145.13 522.59 1145.28 523.86 1145.57 524.777L1150.01 515.942C1149.54 515.317 1148.9 515.005 1148.07 515.005C1147.15 515.005 1146.43 515.497 1145.91 516.481C1145.39 517.451 1145.13 518.947 1145.13 520.968ZM1148.07 526.931C1149 526.931 1149.73 526.446 1150.25 525.475C1150.77 524.492 1151.03 522.989 1151.03 520.968C1151.03 519.253 1150.86 517.923 1150.53 516.979L1146.09 525.894C1146.57 526.586 1147.23 526.931 1148.07 526.931Z" fill="url(#paint68_linear_175_188)"/>
<path d="M1149.27 549.565H1152.21V550.622H1144.59V549.565H1147.99V538.356L1144.75 540.291L1144.19 539.393L1148.19 536.92H1149.27V549.565Z" fill="url(#paint69_linear_175_188)"/>
<path d="M1148.07 559.514C1149.5 559.514 1150.58 560.119 1151.31 561.329C1152.06 562.525 1152.43 564.267 1152.43 566.554C1152.43 568.841 1152.06 570.589 1151.31 571.799C1150.58 573.009 1149.5 573.614 1148.07 573.614C1146.66 573.614 1145.58 573.009 1144.83 571.799C1144.08 570.589 1143.71 568.841 1143.71 566.554C1143.71 564.28 1144.08 562.538 1144.83 561.329C1145.58 560.119 1146.66 559.514 1148.07 559.514ZM1145.13 566.554C1145.13 568.176 1145.28 569.446 1145.57 570.363L1150.01 561.528C1149.54 560.903 1148.9 560.591 1148.07 560.591C1147.15 560.591 1146.43 561.083 1145.91 562.066C1145.39 563.037 1145.13 564.533 1145.13 566.554ZM1148.07 572.517C1149 572.517 1149.73 572.032 1150.25 571.061C1150.77 570.077 1151.03 568.575 1151.03 566.554C1151.03 564.839 1150.86 563.509 1150.53 562.565L1146.09 571.48C1146.57 572.171 1147.23 572.517 1148.07 572.517Z" fill="url(#paint70_linear_175_188)"/>
<path d="M1149.27 595.15H1152.21V596.207H1144.59V595.15H1147.99V583.942L1144.75 585.876L1144.19 584.979L1148.19 582.506H1149.27V595.15Z" fill="url(#paint71_linear_175_188)"/>
<path d="M1149.27 617.943H1152.21V619H1144.59V617.943H1147.99V606.735L1144.75 608.669L1144.19 607.772L1148.19 605.299H1149.27V617.943Z" fill="url(#paint72_linear_175_188)"/>
<path d="M1092.36 354.378C1093.79 354.378 1094.87 354.983 1095.6 356.193C1096.35 357.39 1096.72 359.132 1096.72 361.419C1096.72 363.705 1096.35 365.454 1095.6 366.664C1094.87 367.874 1093.79 368.479 1092.36 368.479C1090.95 368.479 1089.87 367.874 1089.12 366.664C1088.37 365.454 1088 363.705 1088 361.419C1088 359.145 1088.37 357.403 1089.12 356.193C1089.87 354.983 1090.95 354.378 1092.36 354.378ZM1089.42 361.419C1089.42 363.041 1089.57 364.31 1089.86 365.228L1094.3 356.393C1093.83 355.768 1093.19 355.455 1092.36 355.455C1091.44 355.455 1090.72 355.947 1090.2 356.931C1089.68 357.902 1089.42 359.398 1089.42 361.419ZM1092.36 367.382C1093.29 367.382 1094.02 366.896 1094.54 365.926C1095.06 364.942 1095.32 363.44 1095.32 361.419C1095.32 359.703 1095.15 358.374 1094.82 357.43L1090.38 366.345C1090.86 367.036 1091.52 367.382 1092.36 367.382Z" fill="url(#paint73_linear_175_188)"/>
<path d="M1092.36 377.171C1093.79 377.171 1094.87 377.776 1095.6 378.986C1096.35 380.183 1096.72 381.924 1096.72 384.211C1096.72 386.498 1096.35 388.247 1095.6 389.457C1094.87 390.666 1093.79 391.271 1092.36 391.271C1090.95 391.271 1089.87 390.666 1089.12 389.457C1088.37 388.247 1088 386.498 1088 384.211C1088 381.938 1088.37 380.196 1089.12 378.986C1089.87 377.776 1090.95 377.171 1092.36 377.171ZM1089.42 384.211C1089.42 385.833 1089.57 387.103 1089.86 388.021L1094.3 379.186C1093.83 378.561 1093.19 378.248 1092.36 378.248C1091.44 378.248 1090.72 378.74 1090.2 379.724C1089.68 380.695 1089.42 382.19 1089.42 384.211ZM1092.36 390.174C1093.29 390.174 1094.02 389.689 1094.54 388.719C1095.06 387.735 1095.32 386.232 1095.32 384.211C1095.32 382.496 1095.15 381.167 1094.82 380.223L1090.38 389.137C1090.86 389.829 1091.52 390.174 1092.36 390.174Z" fill="url(#paint74_linear_175_188)"/>
<path d="M1093.56 412.808H1096.5V413.865H1088.88V412.808H1092.28V401.599L1089.04 403.534L1088.48 402.636L1092.48 400.163H1093.56V412.808Z" fill="url(#paint75_linear_175_188)"/>
<path d="M1092.36 422.757C1093.79 422.757 1094.87 423.362 1095.6 424.572C1096.35 425.768 1096.72 427.51 1096.72 429.797C1096.72 432.084 1096.35 433.832 1095.6 435.042C1094.87 436.252 1093.79 436.857 1092.36 436.857C1090.95 436.857 1089.87 436.252 1089.12 435.042C1088.37 433.832 1088 432.084 1088 429.797C1088 427.523 1088.37 425.782 1089.12 424.572C1089.87 423.362 1090.95 422.757 1092.36 422.757ZM1089.42 429.797C1089.42 431.419 1089.57 432.689 1089.86 433.606L1094.3 424.771C1093.83 424.146 1093.19 423.834 1092.36 423.834C1091.44 423.834 1090.72 424.326 1090.2 425.31C1089.68 426.28 1089.42 427.776 1089.42 429.797ZM1092.36 435.76C1093.29 435.76 1094.02 435.275 1094.54 434.304C1095.06 433.32 1095.32 431.818 1095.32 429.797C1095.32 428.082 1095.15 426.752 1094.82 425.808L1090.38 434.723C1090.86 435.414 1091.52 435.76 1092.36 435.76Z" fill="url(#paint76_linear_175_188)"/>
<path d="M1093.56 458.393H1096.5V459.45H1088.88V458.393H1092.28V447.185L1089.04 449.12L1088.48 448.222L1092.48 445.749H1093.56V458.393Z" fill="url(#paint77_linear_175_188)"/>
<path d="M1093.56 481.186H1096.5V482.243H1088.88V481.186H1092.28V469.978L1089.04 471.912L1088.48 471.015L1092.48 468.542H1093.56V481.186Z" fill="url(#paint78_linear_175_188)"/>
<path d="M1130.7 321.637H1133.64V322.694H1126.02V321.637H1129.42V310.428L1126.18 312.363L1125.62 311.465L1129.62 308.992H1130.7V321.637Z" fill="url(#paint79_linear_175_188)"/>
<path d="M1129.5 331.586C1130.93 331.586 1132.01 332.191 1132.74 333.4C1133.49 334.597 1133.86 336.339 1133.86 338.626C1133.86 340.913 1133.49 342.661 1132.74 343.871C1132.01 345.081 1130.93 345.686 1129.5 345.686C1128.09 345.686 1127.01 345.081 1126.26 343.871C1125.51 342.661 1125.14 340.913 1125.14 338.626C1125.14 336.352 1125.51 334.61 1126.26 333.4C1127.01 332.191 1128.09 331.586 1129.5 331.586ZM1126.56 338.626C1126.56 340.248 1126.71 341.518 1127 342.435L1131.44 333.6C1130.97 332.975 1130.33 332.663 1129.5 332.663C1128.58 332.663 1127.86 333.155 1127.34 334.138C1126.82 335.109 1126.56 336.605 1126.56 338.626ZM1129.5 344.589C1130.43 344.589 1131.16 344.104 1131.68 343.133C1132.2 342.149 1132.46 340.647 1132.46 338.626C1132.46 336.911 1132.29 335.581 1131.96 334.637L1127.52 343.552C1128 344.243 1128.66 344.589 1129.5 344.589Z" fill="url(#paint80_linear_175_188)"/>
<path d="M1130.7 367.222H1133.64V368.279H1126.02V367.222H1129.42V356.014L1126.18 357.948L1125.62 357.051L1129.62 354.578H1130.7V367.222Z" fill="url(#paint81_linear_175_188)"/>
<path d="M1130.7 390.015H1133.64V391.072H1126.02V390.015H1129.42V378.807L1126.18 380.741L1125.62 379.844L1129.62 377.371H1130.7V390.015Z" fill="url(#paint82_linear_175_188)"/>
<path d="M1129.5 399.964C1130.93 399.964 1132.01 400.569 1132.74 401.779C1133.49 402.976 1133.86 404.717 1133.86 407.004C1133.86 409.291 1133.49 411.039 1132.74 412.249C1132.01 413.459 1130.93 414.064 1129.5 414.064C1128.09 414.064 1127.01 413.459 1126.26 412.249C1125.51 411.039 1125.14 409.291 1125.14 407.004C1125.14 404.731 1125.51 402.989 1126.26 401.779C1127.01 400.569 1128.09 399.964 1129.5 399.964ZM1126.56 407.004C1126.56 408.626 1126.71 409.896 1127 410.813L1131.44 401.978C1130.97 401.353 1130.33 401.041 1129.5 401.041C1128.58 401.041 1127.86 401.533 1127.34 402.517C1126.82 403.487 1126.56 404.983 1126.56 407.004ZM1129.5 412.967C1130.43 412.967 1131.16 412.482 1131.68 411.511C1132.2 410.528 1132.46 409.025 1132.46 407.004C1132.46 405.289 1132.29 403.959 1131.96 403.015L1127.52 411.93C1128 412.622 1128.66 412.967 1129.5 412.967Z" fill="url(#paint83_linear_175_188)"/>
<path d="M1130.7 435.601H1133.64V436.658H1126.02V435.601H1129.42V424.392L1126.18 426.327L1125.62 425.429L1129.62 422.956H1130.7V435.601Z" fill="url(#paint84_linear_175_188)"/>
<path d="M1130.7 458.393H1133.64V459.45H1126.02V458.393H1129.42V447.185L1126.18 449.12L1125.62 448.222L1129.62 445.749H1130.7V458.393Z" fill="url(#paint85_linear_175_188)"/>
<path d="M1129.5 468.342C1130.93 468.342 1132.01 468.947 1132.74 470.157C1133.49 471.354 1133.86 473.096 1133.86 475.383C1133.86 477.669 1133.49 479.418 1132.74 480.628C1132.01 481.838 1130.93 482.443 1129.5 482.443C1128.09 482.443 1127.01 481.838 1126.26 480.628C1125.51 479.418 1125.14 477.669 1125.14 475.383C1125.14 473.109 1125.51 471.367 1126.26 470.157C1127.01 468.947 1128.09 468.342 1129.5 468.342ZM1126.56 475.383C1126.56 477.005 1126.71 478.274 1127 479.192L1131.44 470.357C1130.97 469.732 1130.33 469.419 1129.5 469.419C1128.58 469.419 1127.86 469.911 1127.34 470.895C1126.82 471.866 1126.56 473.362 1126.56 475.383ZM1129.5 481.346C1130.43 481.346 1131.16 480.86 1131.68 479.89C1132.2 478.906 1132.46 477.404 1132.46 475.383C1132.46 473.667 1132.29 472.338 1131.96 471.394L1127.52 480.309C1128 481 1128.66 481.346 1129.5 481.346Z" fill="url(#paint86_linear_175_188)"/>
<path d="M1130.7 503.979H1133.64V505.036H1126.02V503.979H1129.42V492.771L1126.18 494.705L1125.62 493.808L1129.62 491.335H1130.7V503.979Z" fill="url(#paint87_linear_175_188)"/>
<path d="M1129.5 513.928C1130.93 513.928 1132.01 514.533 1132.74 515.743C1133.49 516.94 1133.86 518.681 1133.86 520.968C1133.86 523.255 1133.49 525.003 1132.74 526.213C1132.01 527.423 1130.93 528.028 1129.5 528.028C1128.09 528.028 1127.01 527.423 1126.26 526.213C1125.51 525.003 1125.14 523.255 1125.14 520.968C1125.14 518.695 1125.51 516.953 1126.26 515.743C1127.01 514.533 1128.09 513.928 1129.5 513.928ZM1126.56 520.968C1126.56 522.59 1126.71 523.86 1127 524.777L1131.44 515.942C1130.97 515.317 1130.33 515.005 1129.5 515.005C1128.58 515.005 1127.86 515.497 1127.34 516.481C1126.82 517.451 1126.56 518.947 1126.56 520.968ZM1129.5 526.931C1130.43 526.931 1131.16 526.446 1131.68 525.475C1132.2 524.492 1132.46 522.989 1132.46 520.968C1132.46 519.253 1132.29 517.923 1131.96 516.979L1127.52 525.894C1128 526.586 1128.66 526.931 1129.5 526.931Z" fill="url(#paint88_linear_175_188)"/>
<path d="M1166.64 308.793C1168.07 308.793 1169.15 309.398 1169.88 310.608C1170.63 311.804 1171 313.546 1171 315.833C1171 318.12 1170.63 319.868 1169.88 321.078C1169.15 322.288 1168.07 322.893 1166.64 322.893C1165.23 322.893 1164.15 322.288 1163.4 321.078C1162.65 319.868 1162.28 318.12 1162.28 315.833C1162.28 313.559 1162.65 311.818 1163.4 310.608C1164.15 309.398 1165.23 308.793 1166.64 308.793ZM1163.7 315.833C1163.7 317.455 1163.85 318.725 1164.14 319.642L1168.58 310.807C1168.11 310.182 1167.47 309.87 1166.64 309.87C1165.72 309.87 1165 310.362 1164.48 311.346C1163.96 312.316 1163.7 313.812 1163.7 315.833ZM1166.64 321.796C1167.57 321.796 1168.3 321.311 1168.82 320.34C1169.34 319.356 1169.6 317.854 1169.6 315.833C1169.6 314.118 1169.43 312.788 1169.1 311.844L1164.66 320.759C1165.14 321.45 1165.8 321.796 1166.64 321.796Z" fill="url(#paint89_linear_175_188)"/>
<path d="M1167.84 344.429H1170.78V345.486H1163.16V344.429H1166.56V333.221L1163.32 335.156L1162.76 334.258L1166.76 331.785H1167.84V344.429Z" fill="url(#paint90_linear_175_188)"/>
<path d="M1167.84 367.222H1170.78V368.279H1163.16V367.222H1166.56V356.014L1163.32 357.948L1162.76 357.051L1166.76 354.578H1167.84V367.222Z" fill="url(#paint91_linear_175_188)"/>
<path d="M1166.64 377.171C1168.07 377.171 1169.15 377.776 1169.88 378.986C1170.63 380.183 1171 381.924 1171 384.211C1171 386.498 1170.63 388.247 1169.88 389.457C1169.15 390.666 1168.07 391.271 1166.64 391.271C1165.23 391.271 1164.15 390.666 1163.4 389.457C1162.65 388.247 1162.28 386.498 1162.28 384.211C1162.28 381.938 1162.65 380.196 1163.4 378.986C1164.15 377.776 1165.23 377.171 1166.64 377.171ZM1163.7 384.211C1163.7 385.833 1163.85 387.103 1164.14 388.021L1168.58 379.186C1168.11 378.561 1167.47 378.248 1166.64 378.248C1165.72 378.248 1165 378.74 1164.48 379.724C1163.96 380.695 1163.7 382.19 1163.7 384.211ZM1166.64 390.174C1167.57 390.174 1168.3 389.689 1168.82 388.719C1169.34 387.735 1169.6 386.232 1169.6 384.211C1169.6 382.496 1169.43 381.167 1169.1 380.223L1164.66 389.137C1165.14 389.829 1165.8 390.174 1166.64 390.174Z" fill="url(#paint92_linear_175_188)"/>
<path d="M1166.64 399.964C1168.07 399.964 1169.15 400.569 1169.88 401.779C1170.63 402.976 1171 404.717 1171 407.004C1171 409.291 1170.63 411.039 1169.88 412.249C1169.15 413.459 1168.07 414.064 1166.64 414.064C1165.23 414.064 1164.15 413.459 1163.4 412.249C1162.65 411.039 1162.28 409.291 1162.28 407.004C1162.28 404.731 1162.65 402.989 1163.4 401.779C1164.15 400.569 1165.23 399.964 1166.64 399.964ZM1163.7 407.004C1163.7 408.626 1163.85 409.896 1164.14 410.813L1168.58 401.978C1168.11 401.353 1167.47 401.041 1166.64 401.041C1165.72 401.041 1165 401.533 1164.48 402.517C1163.96 403.487 1163.7 404.983 1163.7 407.004ZM1166.64 412.967C1167.57 412.967 1168.3 412.482 1168.82 411.511C1169.34 410.528 1169.6 409.025 1169.6 407.004C1169.6 405.289 1169.43 403.959 1169.1 403.015L1164.66 411.93C1165.14 412.622 1165.8 412.967 1166.64 412.967Z" fill="url(#paint93_linear_175_188)"/>
</g>
<defs>
<filter id="filter0_f_175_188" x="-367.19" y="-400.19" width="2141.38" height="1500.38" filterUnits="userSpaceOnUse" color-interpolation-filters="sRGB">
<feFlood flood-opacity="0" result="BackgroundImageFix"/>
<feBlend mode="normal" in="SourceGraphic" in2="BackgroundImageFix" result="shape"/>
<feGaussianBlur stdDeviation="200.095" result="effect1_foregroundBlur_175_188"/>
</filter>
<linearGradient id="paint0_linear_175_188" x1="243.5" y1="586" x2="243.5" y2="897.381" gradientUnits="userSpaceOnUse">
<stop stop-color="#F7DD43"/>
<stop offset="1" stop-color="#F7DD43" stop-opacity="0"/>
</linearGradient>
<linearGradient id="paint1_linear_175_188" x1="243.5" y1="586" x2="243.5" y2="897.381" gradientUnits="userSpaceOnUse">
<stop stop-color="#F7DD43"/>
<stop offset="1" stop-color="#F7DD43" stop-opacity="0"/>
</linearGradient>
<linearGradient id="paint2_linear_175_188" x1="243.5" y1="586" x2="243.5" y2="897.381" gradientUnits="userSpaceOnUse">
<stop stop-color="#F7DD43"/>
<stop offset="1" stop-color="#F7DD43" stop-opacity="0"/>
</linearGradient>
<linearGradient id="paint3_linear_175_188" x1="243.5" y1="586" x2="243.5" y2="897.381" gradientUnits="userSpaceOnUse">
<stop stop-color="#F7DD43"/>
<stop offset="1" stop-color="#F7DD43" stop-opacity="0"/>
</linearGradient>
<linearGradient id="paint4_linear_175_188" x1="243.5" y1="586" x2="243.5" y2="897.381" gradientUnits="userSpaceOnUse">
<stop stop-color="#F7DD43"/>
<stop offset="1" stop-color="#F7DD43" stop-opacity="0"/>
</linearGradient>
<linearGradient id="paint5_linear_175_188" x1="243.5" y1="586" x2="243.5" y2="897.381" gradientUnits="userSpaceOnUse">
<stop stop-color="#F7DD43"/>
<stop offset="1" stop-color="#F7DD43" stop-opacity="0"/>
</linearGradient>
<linearGradient id="paint6_linear_175_188" x1="243.5" y1="586" x2="243.5" y2="897.381" gradientUnits="userSpaceOnUse">
<stop stop-color="#F7DD43"/>
<stop offset="1" stop-color="#F7DD43" stop-opacity="0"/>
</linearGradient>
<linearGradient id="paint7_linear_175_188" x1="243.5" y1="586" x2="243.5" y2="897.381" gradientUnits="userSpaceOnUse">
<stop stop-color="#F7DD43"/>
<stop offset="1" stop-color="#F7DD43" stop-opacity="0"/>
</linearGradient>
<linearGradient id="paint8_linear_175_188" x1="243.5" y1="586" x2="243.5" y2="897.381" gradientUnits="userSpaceOnUse">
<stop stop-color="#F7DD43"/>
<stop offset="1" stop-color="#F7DD43" stop-opacity="0"/>
</linearGradient>
<linearGradient id="paint9_linear_175_188" x1="243.5" y1="586" x2="243.5" y2="897.381" gradientUnits="userSpaceOnUse">
<stop stop-color="#F7DD43"/>
<stop offset="1" stop-color="#F7DD43" stop-opacity="0"/>
</linearGradient>
<linearGradient id="paint10_linear_175_188" x1="243.5" y1="586" x2="243.5" y2="897.381" gradientUnits="userSpaceOnUse">
<stop stop-color="#F7DD43"/>
<stop offset="1" stop-color="#F7DD43" stop-opacity="0"/>
</linearGradient>
<linearGradient id="paint11_linear_175_188" x1="243.5" y1="586" x2="243.5" y2="897.381" gradientUnits="userSpaceOnUse">
<stop stop-color="#F7DD43"/>
<stop offset="1" stop-color="#F7DD43" stop-opacity="0"/>
</linearGradient>
<linearGradient id="paint12_linear_175_188" x1="243.5" y1="586" x2="243.5" y2="897.381" gradientUnits="userSpaceOnUse">
<stop stop-color="#F7DD43"/>
<stop offset="1" stop-color="#F7DD43" stop-opacity="0"/>
</linearGradient>
<linearGradient id="paint13_linear_175_188" x1="243.5" y1="586" x2="243.5" y2="897.381" gradientUnits="userSpaceOnUse">
<stop stop-color="#F7DD43"/>
<stop offset="1" stop-color="#F7DD43" stop-opacity="0"/>
</linearGradient>
<linearGradient id="paint14_linear_175_188" x1="243.5" y1="586" x2="243.5" y2="897.381" gradientUnits="userSpaceOnUse">
<stop stop-color="#F7DD43"/>
<stop offset="1" stop-color="#F7DD43" stop-opacity="0"/>
</linearGradient>
<linearGradient id="paint15_linear_175_188" x1="243.5" y1="586" x2="243.5" y2="897.381" gradientUnits="userSpaceOnUse">
<stop stop-color="#F7DD43"/>
<stop offset="1" stop-color="#F7DD43" stop-opacity="0"/>
</linearGradient>
<linearGradient id="paint16_linear_175_188" x1="243.5" y1="586" x2="243.5" y2="897.381" gradientUnits="userSpaceOnUse">
<stop stop-color="#F7DD43"/>
<stop offset="1" stop-color="#F7DD43" stop-opacity="0"/>
</linearGradient>
<linearGradient id="paint17_linear_175_188" x1="243.5" y1="586" x2="243.5" y2="897.381" gradientUnits="userSpaceOnUse">
<stop stop-color="#F7DD43"/>
<stop offset="1" stop-color="#F7DD43" stop-opacity="0"/>
</linearGradient>
<linearGradient id="paint18_linear_175_188" x1="243.5" y1="586" x2="243.5" y2="897.381" gradientUnits="userSpaceOnUse">
<stop stop-color="#F7DD43"/>
<stop offset="1" stop-color="#F7DD43" stop-opacity="0"/>
</linearGradient>
<linearGradient id="paint19_linear_175_188" x1="243.5" y1="586" x2="243.5" y2="897.381" gradientUnits="userSpaceOnUse">
<stop stop-color="#F7DD43"/>
<stop offset="1" stop-color="#F7DD43" stop-opacity="0"/>
</linearGradient>
<linearGradient id="paint20_linear_175_188" x1="243.5" y1="586" x2="243.5" y2="897.381" gradientUnits="userSpaceOnUse">
<stop stop-color="#F7DD43"/>
<stop offset="1" stop-color="#F7DD43" stop-opacity="0"/>
</linearGradient>
<linearGradient id="paint21_linear_175_188" x1="243.5" y1="586" x2="243.5" y2="897.381" gradientUnits="userSpaceOnUse">
<stop stop-color="#F7DD43"/>
<stop offset="1" stop-color="#F7DD43" stop-opacity="0"/>
</linearGradient>
<linearGradient id="paint22_linear_175_188" x1="243.5" y1="586" x2="243.5" y2="897.381" gradientUnits="userSpaceOnUse">
<stop stop-color="#F7DD43"/>
<stop offset="1" stop-color="#F7DD43" stop-opacity="0"/>
</linearGradient>
<linearGradient id="paint23_linear_175_188" x1="243.5" y1="586" x2="243.5" y2="897.381" gradientUnits="userSpaceOnUse">
<stop stop-color="#F7DD43"/>
<stop offset="1" stop-color="#F7DD43" stop-opacity="0"/>
</linearGradient>
<linearGradient id="paint24_linear_175_188" x1="243.5" y1="586" x2="243.5" y2="897.381" gradientUnits="userSpaceOnUse">
<stop stop-color="#F7DD43"/>
<stop offset="1" stop-color="#F7DD43" stop-opacity="0"/>
</linearGradient>
<linearGradient id="paint25_linear_175_188" x1="243.5" y1="586" x2="243.5" y2="897.381" gradientUnits="userSpaceOnUse">
<stop stop-color="#F7DD43"/>
<stop offset="1" stop-color="#F7DD43" stop-opacity="0"/>
</linearGradient>
<linearGradient id="paint26_linear_175_188" x1="243.5" y1="586" x2="243.5" y2="897.381" gradientUnits="userSpaceOnUse">
<stop stop-color="#F7DD43"/>
<stop offset="1" stop-color="#F7DD43" stop-opacity="0"/>
</linearGradient>
<linearGradient id="paint27_linear_175_188" x1="243.5" y1="586" x2="243.5" y2="897.381" gradientUnits="userSpaceOnUse">
<stop stop-color="#F7DD43"/>
<stop offset="1" stop-color="#F7DD43" stop-opacity="0"/>
</linearGradient>
<linearGradient id="paint28_linear_175_188" x1="243.5" y1="586" x2="243.5" y2="897.381" gradientUnits="userSpaceOnUse">
<stop stop-color="#F7DD43"/>
<stop offset="1" stop-color="#F7DD43" stop-opacity="0"/>
</linearGradient>
<linearGradient id="paint29_linear_175_188" x1="243.5" y1="586" x2="243.5" y2="897.381" gradientUnits="userSpaceOnUse">
<stop stop-color="#F7DD43"/>
<stop offset="1" stop-color="#F7DD43" stop-opacity="0"/>
</linearGradient>
<linearGradient id="paint30_linear_175_188" x1="243.5" y1="586" x2="243.5" y2="897.381" gradientUnits="userSpaceOnUse">
<stop stop-color="#F7DD43"/>
<stop offset="1" stop-color="#F7DD43" stop-opacity="0"/>
</linearGradient>
<linearGradient id="paint31_linear_175_188" x1="243.5" y1="586" x2="243.5" y2="897.381" gradientUnits="userSpaceOnUse">
<stop stop-color="#F7DD43"/>
<stop offset="1" stop-color="#F7DD43" stop-opacity="0"/>
</linearGradient>
<linearGradient id="paint32_linear_175_188" x1="243.5" y1="586" x2="243.5" y2="897.381" gradientUnits="userSpaceOnUse">
<stop stop-color="#F7DD43"/>
<stop offset="1" stop-color="#F7DD43" stop-opacity="0"/>
</linearGradient>
<linearGradient id="paint33_linear_175_188" x1="243.5" y1="586" x2="243.5" y2="897.381" gradientUnits="userSpaceOnUse">
<stop stop-color="#F7DD43"/>
<stop offset="1" stop-color="#F7DD43" stop-opacity="0"/>
</linearGradient>
<linearGradient id="paint34_linear_175_188" x1="243.5" y1="586" x2="243.5" y2="897.381" gradientUnits="userSpaceOnUse">
<stop stop-color="#F7DD43"/>
<stop offset="1" stop-color="#F7DD43" stop-opacity="0"/>
</linearGradient>
<linearGradient id="paint35_linear_175_188" x1="243.5" y1="586" x2="243.5" y2="897.381" gradientUnits="userSpaceOnUse">
<stop stop-color="#F7DD43"/>
<stop offset="1" stop-color="#F7DD43" stop-opacity="0"/>
</linearGradient>
<linearGradient id="paint36_linear_175_188" x1="243.5" y1="586" x2="243.5" y2="897.381" gradientUnits="userSpaceOnUse">
<stop stop-color="#F7DD43"/>
<stop offset="1" stop-color="#F7DD43" stop-opacity="0"/>
</linearGradient>
<linearGradient id="paint37_linear_175_188" x1="243.5" y1="586" x2="243.5" y2="897.381" gradientUnits="userSpaceOnUse">
<stop stop-color="#F7DD43"/>
<stop offset="1" stop-color="#F7DD43" stop-opacity="0"/>
</linearGradient>
<linearGradient id="paint38_linear_175_188" x1="243.5" y1="586" x2="243.5" y2="897.381" gradientUnits="userSpaceOnUse">
<stop stop-color="#F7DD43"/>
<stop offset="1" stop-color="#F7DD43" stop-opacity="0"/>
</linearGradient>
<linearGradient id="paint39_linear_175_188" x1="243.5" y1="586" x2="243.5" y2="897.381" gradientUnits="userSpaceOnUse">
<stop stop-color="#F7DD43"/>
<stop offset="1" stop-color="#F7DD43" stop-opacity="0"/>
</linearGradient>
<linearGradient id="paint40_linear_175_188" x1="243.5" y1="586" x2="243.5" y2="897.381" gradientUnits="userSpaceOnUse">
<stop stop-color="#F7DD43"/>
<stop offset="1" stop-color="#F7DD43" stop-opacity="0"/>
</linearGradient>
<linearGradient id="paint41_linear_175_188" x1="243.5" y1="586" x2="243.5" y2="897.381" gradientUnits="userSpaceOnUse">
<stop stop-color="#F7DD43"/>
<stop offset="1" stop-color="#F7DD43" stop-opacity="0"/>
</linearGradient>
<linearGradient id="paint42_linear_175_188" x1="243.5" y1="586" x2="243.5" y2="897.381" gradientUnits="userSpaceOnUse">
<stop stop-color="#F7DD43"/>
<stop offset="1" stop-color="#F7DD43" stop-opacity="0"/>
</linearGradient>
<linearGradient id="paint43_linear_175_188" x1="243.5" y1="586" x2="243.5" y2="897.381" gradientUnits="userSpaceOnUse">
<stop stop-color="#F7DD43"/>
<stop offset="1" stop-color="#F7DD43" stop-opacity="0"/>
</linearGradient>
<linearGradient id="paint44_linear_175_188" x1="243.5" y1="586" x2="243.5" y2="897.381" gradientUnits="userSpaceOnUse">
<stop stop-color="#F7DD43"/>
<stop offset="1" stop-color="#F7DD43" stop-opacity="0"/>
</linearGradient>
<linearGradient id="paint45_linear_175_188" x1="243.5" y1="586" x2="243.5" y2="897.381" gradientUnits="userSpaceOnUse">
<stop stop-color="#F7DD43"/>
<stop offset="1" stop-color="#F7DD43" stop-opacity="0"/>
</linearGradient>
<linearGradient id="paint46_linear_175_188" x1="243.5" y1="586" x2="243.5" y2="897.381" gradientUnits="userSpaceOnUse">
<stop stop-color="#F7DD43"/>
<stop offset="1" stop-color="#F7DD43" stop-opacity="0"/>
</linearGradient>
<linearGradient id="paint47_linear_175_188" x1="1129.5" y1="286" x2="1129.5" y2="584.818" gradientUnits="userSpaceOnUse">
<stop stop-color="#F7DD43"/>
<stop offset="1" stop-color="#F7DD43" stop-opacity="0"/>
</linearGradient>
<linearGradient id="paint48_linear_175_188" x1="1129.5" y1="286" x2="1129.5" y2="584.818" gradientUnits="userSpaceOnUse">
<stop stop-color="#F7DD43"/>
<stop offset="1" stop-color="#F7DD43" stop-opacity="0"/>
</linearGradient>
<linearGradient id="paint49_linear_175_188" x1="1129.5" y1="286" x2="1129.5" y2="584.818" gradientUnits="userSpaceOnUse">
<stop stop-color="#F7DD43"/>
<stop offset="1" stop-color="#F7DD43" stop-opacity="0"/>
</linearGradient>
<linearGradient id="paint50_linear_175_188" x1="1129.5" y1="286" x2="1129.5" y2="584.818" gradientUnits="userSpaceOnUse">
<stop stop-color="#F7DD43"/>
<stop offset="1" stop-color="#F7DD43" stop-opacity="0"/>
</linearGradient>
<linearGradient id="paint51_linear_175_188" x1="1129.5" y1="286" x2="1129.5" y2="584.818" gradientUnits="userSpaceOnUse">
<stop stop-color="#F7DD43"/>
<stop offset="1" stop-color="#F7DD43" stop-opacity="0"/>
</linearGradient>
<linearGradient id="paint52_linear_175_188" x1="1129.5" y1="286" x2="1129.5" y2="584.818" gradientUnits="userSpaceOnUse">
<stop stop-color="#F7DD43"/>
<stop offset="1" stop-color="#F7DD43" stop-opacity="0"/>
</linearGradient>
<linearGradient id="paint53_linear_175_188" x1="1129.5" y1="286" x2="1129.5" y2="584.818" gradientUnits="userSpaceOnUse">
<stop stop-color="#F7DD43"/>
<stop offset="1" stop-color="#F7DD43" stop-opacity="0"/>
</linearGradient>
<linearGradient id="paint54_linear_175_188" x1="1129.5" y1="286" x2="1129.5" y2="584.818" gradientUnits="userSpaceOnUse">
<stop stop-color="#F7DD43"/>
<stop offset="1" stop-color="#F7DD43" stop-opacity="0"/>
</linearGradient>
<linearGradient id="paint55_linear_175_188" x1="1129.5" y1="286" x2="1129.5" y2="584.818" gradientUnits="userSpaceOnUse">
<stop stop-color="#F7DD43"/>
<stop offset="1" stop-color="#F7DD43" stop-opacity="0"/>
</linearGradient>
<linearGradient id="paint56_linear_175_188" x1="1129.5" y1="286" x2="1129.5" y2="584.818" gradientUnits="userSpaceOnUse">
<stop stop-color="#F7DD43"/>
<stop offset="1" stop-color="#F7DD43" stop-opacity="0"/>
</linearGradient>
<linearGradient id="paint57_linear_175_188" x1="1129.5" y1="286" x2="1129.5" y2="584.818" gradientUnits="userSpaceOnUse">
<stop stop-color="#F7DD43"/>
<stop offset="1" stop-color="#F7DD43" stop-opacity="0"/>
</linearGradient>
<linearGradient id="paint58_linear_175_188" x1="1129.5" y1="286" x2="1129.5" y2="584.818" gradientUnits="userSpaceOnUse">
<stop stop-color="#F7DD43"/>
<stop offset="1" stop-color="#F7DD43" stop-opacity="0"/>
</linearGradient>
<linearGradient id="paint59_linear_175_188" x1="1129.5" y1="286" x2="1129.5" y2="584.818" gradientUnits="userSpaceOnUse">
<stop stop-color="#F7DD43"/>
<stop offset="1" stop-color="#F7DD43" stop-opacity="0"/>
</linearGradient>
<linearGradient id="paint60_linear_175_188" x1="1129.5" y1="286" x2="1129.5" y2="584.818" gradientUnits="userSpaceOnUse">
<stop stop-color="#F7DD43"/>
<stop offset="1" stop-color="#F7DD43" stop-opacity="0"/>
</linearGradient>
<linearGradient id="paint61_linear_175_188" x1="1129.5" y1="286" x2="1129.5" y2="584.818" gradientUnits="userSpaceOnUse">
<stop stop-color="#F7DD43"/>
<stop offset="1" stop-color="#F7DD43" stop-opacity="0"/>
</linearGradient>
<linearGradient id="paint62_linear_175_188" x1="1129.5" y1="286" x2="1129.5" y2="584.818" gradientUnits="userSpaceOnUse">
<stop stop-color="#F7DD43"/>
<stop offset="1" stop-color="#F7DD43" stop-opacity="0"/>
</linearGradient>
<linearGradient id="paint63_linear_175_188" x1="1129.5" y1="286" x2="1129.5" y2="584.818" gradientUnits="userSpaceOnUse">
<stop stop-color="#F7DD43"/>
<stop offset="1" stop-color="#F7DD43" stop-opacity="0"/>
</linearGradient>
<linearGradient id="paint64_linear_175_188" x1="1129.5" y1="286" x2="1129.5" y2="584.818" gradientUnits="userSpaceOnUse">
<stop stop-color="#F7DD43"/>
<stop offset="1" stop-color="#F7DD43" stop-opacity="0"/>
</linearGradient>
<linearGradient id="paint65_linear_175_188" x1="1129.5" y1="286" x2="1129.5" y2="584.818" gradientUnits="userSpaceOnUse">
<stop stop-color="#F7DD43"/>
<stop offset="1" stop-color="#F7DD43" stop-opacity="0"/>
</linearGradient>
<linearGradient id="paint66_linear_175_188" x1="1129.5" y1="286" x2="1129.5" y2="584.818" gradientUnits="userSpaceOnUse">
<stop stop-color="#F7DD43"/>
<stop offset="1" stop-color="#F7DD43" stop-opacity="0"/>
</linearGradient>
<linearGradient id="paint67_linear_175_188" x1="1129.5" y1="286" x2="1129.5" y2="584.818" gradientUnits="userSpaceOnUse">
<stop stop-color="#F7DD43"/>
<stop offset="1" stop-color="#F7DD43" stop-opacity="0"/>
</linearGradient>
<linearGradient id="paint68_linear_175_188" x1="1129.5" y1="286" x2="1129.5" y2="584.818" gradientUnits="userSpaceOnUse">
<stop stop-color="#F7DD43"/>
<stop offset="1" stop-color="#F7DD43" stop-opacity="0"/>
</linearGradient>
<linearGradient id="paint69_linear_175_188" x1="1129.5" y1="286" x2="1129.5" y2="584.818" gradientUnits="userSpaceOnUse">
<stop stop-color="#F7DD43"/>
<stop offset="1" stop-color="#F7DD43" stop-opacity="0"/>
</linearGradient>
<linearGradient id="paint70_linear_175_188" x1="1129.5" y1="286" x2="1129.5" y2="584.818" gradientUnits="userSpaceOnUse">
<stop stop-color="#F7DD43"/>
<stop offset="1" stop-color="#F7DD43" stop-opacity="0"/>
</linearGradient>
<linearGradient id="paint71_linear_175_188" x1="1129.5" y1="286" x2="1129.5" y2="584.818" gradientUnits="userSpaceOnUse">
<stop stop-color="#F7DD43"/>
<stop offset="1" stop-color="#F7DD43" stop-opacity="0"/>
</linearGradient>
<linearGradient id="paint72_linear_175_188" x1="1129.5" y1="286" x2="1129.5" y2="584.818" gradientUnits="userSpaceOnUse">
<stop stop-color="#F7DD43"/>
<stop offset="1" stop-color="#F7DD43" stop-opacity="0"/>
</linearGradient>
<linearGradient id="paint73_linear_175_188" x1="1129.5" y1="286" x2="1129.5" y2="584.818" gradientUnits="userSpaceOnUse">
<stop stop-color="#F7DD43"/>
<stop offset="1" stop-color="#F7DD43" stop-opacity="0"/>
</linearGradient>
<linearGradient id="paint74_linear_175_188" x1="1129.5" y1="286" x2="1129.5" y2="584.818" gradientUnits="userSpaceOnUse">
<stop stop-color="#F7DD43"/>
<stop offset="1" stop-color="#F7DD43" stop-opacity="0"/>
</linearGradient>
<linearGradient id="paint75_linear_175_188" x1="1129.5" y1="286" x2="1129.5" y2="584.818" gradientUnits="userSpaceOnUse">
<stop stop-color="#F7DD43"/>
<stop offset="1" stop-color="#F7DD43" stop-opacity="0"/>
</linearGradient>
<linearGradient id="paint76_linear_175_188" x1="1129.5" y1="286" x2="1129.5" y2="584.818" gradientUnits="userSpaceOnUse">
<stop stop-color="#F7DD43"/>
<stop offset="1" stop-color="#F7DD43" stop-opacity="0"/>
</linearGradient>
<linearGradient id="paint77_linear_175_188" x1="1129.5" y1="286" x2="1129.5" y2="584.818" gradientUnits="userSpaceOnUse">
<stop stop-color="#F7DD43"/>
<stop offset="1" stop-color="#F7DD43" stop-opacity="0"/>
</linearGradient>
<linearGradient id="paint78_linear_175_188" x1="1129.5" y1="286" x2="1129.5" y2="584.818" gradientUnits="userSpaceOnUse">
<stop stop-color="#F7DD43"/>
<stop offset="1" stop-color="#F7DD43" stop-opacity="0"/>
</linearGradient>
<linearGradient id="paint79_linear_175_188" x1="1129.5" y1="286" x2="1129.5" y2="584.818" gradientUnits="userSpaceOnUse">
<stop stop-color="#F7DD43"/>
<stop offset="1" stop-color="#F7DD43" stop-opacity="0"/>
</linearGradient>
<linearGradient id="paint80_linear_175_188" x1="1129.5" y1="286" x2="1129.5" y2="584.818" gradientUnits="userSpaceOnUse">
<stop stop-color="#F7DD43"/>
<stop offset="1" stop-color="#F7DD43" stop-opacity="0"/>
</linearGradient>
<linearGradient id="paint81_linear_175_188" x1="1129.5" y1="286" x2="1129.5" y2="584.818" gradientUnits="userSpaceOnUse">
<stop stop-color="#F7DD43"/>
<stop offset="1" stop-color="#F7DD43" stop-opacity="0"/>
</linearGradient>
<linearGradient id="paint82_linear_175_188" x1="1129.5" y1="286" x2="1129.5" y2="584.818" gradientUnits="userSpaceOnUse">
<stop stop-color="#F7DD43"/>
<stop offset="1" stop-color="#F7DD43" stop-opacity="0"/>
</linearGradient>
<linearGradient id="paint83_linear_175_188" x1="1129.5" y1="286" x2="1129.5" y2="584.818" gradientUnits="userSpaceOnUse">
<stop stop-color="#F7DD43"/>
<stop offset="1" stop-color="#F7DD43" stop-opacity="0"/>
</linearGradient>
<linearGradient id="paint84_linear_175_188" x1="1129.5" y1="286" x2="1129.5" y2="584.818" gradientUnits="userSpaceOnUse">
<stop stop-color="#F7DD43"/>
<stop offset="1" stop-color="#F7DD43" stop-opacity="0"/>
</linearGradient>
<linearGradient id="paint85_linear_175_188" x1="1129.5" y1="286" x2="1129.5" y2="584.818" gradientUnits="userSpaceOnUse">
<stop stop-color="#F7DD43"/>
<stop offset="1" stop-color="#F7DD43" stop-opacity="0"/>
</linearGradient>
<linearGradient id="paint86_linear_175_188" x1="1129.5" y1="286" x2="1129.5" y2="584.818" gradientUnits="userSpaceOnUse">
<stop stop-color="#F7DD43"/>
<stop offset="1" stop-color="#F7DD43" stop-opacity="0"/>
</linearGradient>
<linearGradient id="paint87_linear_175_188" x1="1129.5" y1="286" x2="1129.5" y2="584.818" gradientUnits="userSpaceOnUse">
<stop stop-color="#F7DD43"/>
<stop offset="1" stop-color="#F7DD43" stop-opacity="0"/>
</linearGradient>
<linearGradient id="paint88_linear_175_188" x1="1129.5" y1="286" x2="1129.5" y2="584.818" gradientUnits="userSpaceOnUse">
<stop stop-color="#F7DD43"/>
<stop offset="1" stop-color="#F7DD43" stop-opacity="0"/>
</linearGradient>
<linearGradient id="paint89_linear_175_188" x1="1129.5" y1="286" x2="1129.5" y2="584.818" gradientUnits="userSpaceOnUse">
<stop stop-color="#F7DD43"/>
<stop offset="1" stop-color="#F7DD43" stop-opacity="0"/>
</linearGradient>
<linearGradient id="paint90_linear_175_188" x1="1129.5" y1="286" x2="1129.5" y2="584.818" gradientUnits="userSpaceOnUse">
<stop stop-color="#F7DD43"/>
<stop offset="1" stop-color="#F7DD43" stop-opacity="0"/>
</linearGradient>
<linearGradient id="paint91_linear_175_188" x1="1129.5" y1="286" x2="1129.5" y2="584.818" gradientUnits="userSpaceOnUse">
<stop stop-color="#F7DD43"/>
<stop offset="1" stop-color="#F7DD43" stop-opacity="0"/>
</linearGradient>
<linearGradient id="paint92_linear_175_188" x1="1129.5" y1="286" x2="1129.5" y2="584.818" gradientUnits="userSpaceOnUse">
<stop stop-color="#F7DD43"/>
<stop offset="1" stop-color="#F7DD43" stop-opacity="0"/>
</linearGradient>
<linearGradient id="paint93_linear_175_188" x1="1129.5" y1="286" x2="1129.5" y2="584.818" gradientUnits="userSpaceOnUse">
<stop stop-color="#F7DD43"/>
<stop offset="1" stop-color="#F7DD43" stop-opacity="0"/>
</linearGradient>
</defs>
</svg>
